<svg xmlns="http://www.w3.org/2000/svg" viewBox="0 0 24 24">
  <!-- White background with rounded corners -->
  <path fill="#FFFFFF" d="M23.498 6.186a2.99 2.99 0 0 0-2.107-2.116C19.271 3.5 12 3.5 12 3.5s-7.271 0-9.391.57A2.99 2.99 0 0 0 .502 6.186 31.05 31.05 0 0 0 0 12a31.05 31.05 0 0 0 .502 5.814 2.99 2.99 0 0 0 2.107 2.116C4.729 20.5 12 20.5 12 20.5s7.271 0 9.391-.57a2.99 2.99 0 0 0 2.107-2.116A31.05 31.05 0 0 0 24 12a31.05 31.05 0 0 0-.502-5.814Z"></path>
  <!-- Red play triangle -->
  <path fill="#CC0000" d="M9.75 15.5v-7l6 3.5-6 3.5Z"></path>
</svg>
